<?xml version="1.0" encoding="UTF-8"?>
<svg width="600pt" height="600pt" version="1.1" viewBox="50 -20 600 600" xmlns="http://www.w3.org/2000/svg" xmlns:xlink="http://www.w3.org/1999/xlink" fill="#42A5F5">
 <defs>
  <symbol id="u" overflow="visible">
   <path d="m7.0781-0.42188c-0.36719 0.1875-0.74609 0.32812-1.1406 0.42188-0.39844 0.10156-0.80859 0.15625-1.2344 0.15625-1.2812 0-2.2969-0.35938-3.0469-1.0781s-1.125-1.6914-1.125-2.9219c0-1.2266 0.375-2.2031 1.125-2.9219s1.7656-1.0781 3.0469-1.0781c0.42578 0 0.83594 0.054688 1.2344 0.15625 0.39453 0.09375 0.77344 0.23438 1.1406 0.42188v1.5938c-0.36719-0.25-0.73047-0.42969-1.0938-0.54688-0.35547-0.125-0.73047-0.1875-1.125-0.1875-0.71094 0-1.2656 0.23047-1.6719 0.6875-0.40625 0.46094-0.60938 1.0859-0.60938 1.875 0 0.79297 0.20312 1.418 0.60938 1.875 0.40625 0.44922 0.96094 0.67188 1.6719 0.67188 0.39453 0 0.76953-0.054687 1.125-0.17188 0.36328-0.11328 0.72656-0.29688 1.0938-0.54688z"/>
  </symbol>
  <symbol id="d" overflow="visible">
   <path d="m5.1719-4.2031c-0.15625-0.070313-0.32031-0.125-0.48438-0.15625-0.15625-0.039063-0.3125-0.0625-0.46875-0.0625-0.48047 0-0.85156 0.15234-1.1094 0.45312-0.25 0.30469-0.375 0.74219-0.375 1.3125v2.6562h-1.8438v-5.7812h1.8438v0.95312c0.23828-0.375 0.50781-0.64844 0.8125-0.82812 0.3125-0.17578 0.67969-0.26562 1.1094-0.26562 0.0625 0 0.12891 0.007813 0.20312 0.015625 0.070313 0 0.17578 0.011719 0.3125 0.03125z"/>
  </symbol>
  <symbol id="a" overflow="visible">
   <path d="m6.6562-2.9062v0.53125h-4.3125c0.039062 0.42969 0.19141 0.75 0.45312 0.96875 0.26953 0.21875 0.64844 0.32812 1.1406 0.32812 0.38281 0 0.78125-0.054687 1.1875-0.17188 0.40625-0.11328 0.82031-0.28906 1.25-0.53125v1.4375c-0.4375 0.15625-0.875 0.27734-1.3125 0.35938-0.42969 0.09375-0.85938 0.14062-1.2969 0.14062-1.0547 0-1.8711-0.26562-2.4531-0.79688-0.57422-0.53125-0.85938-1.2812-0.85938-2.25 0-0.9375 0.28125-1.6758 0.84375-2.2188 0.57031-0.53906 1.3594-0.8125 2.3594-0.8125 0.90625 0 1.6289 0.27734 2.1719 0.82812 0.55078 0.54297 0.82812 1.2734 0.82812 2.1875zm-1.9062-0.60938c0-0.35156-0.10547-0.63281-0.3125-0.84375-0.19922-0.21875-0.46484-0.32812-0.79688-0.32812-0.35547 0-0.64844 0.10547-0.875 0.3125-0.21875 0.19922-0.35547 0.48438-0.40625 0.85938z"/>
  </symbol>
  <symbol id="c" overflow="visible">
   <path d="m3.4688-2.5938c-0.375 0-0.66406 0.070312-0.85938 0.20312-0.19922 0.125-0.29688 0.3125-0.29688 0.5625 0 0.24219 0.078125 0.42969 0.23438 0.5625 0.15625 0.125 0.375 0.1875 0.65625 0.1875 0.34375 0 0.63281-0.125 0.875-0.375 0.23828-0.25 0.35938-0.5625 0.35938-0.9375v-0.20312zm2.8281-0.70312v3.2969h-1.8594v-0.85938c-0.25 0.35547-0.53125 0.61719-0.84375 0.78125-0.30469 0.15625-0.67969 0.23438-1.125 0.23438-0.59375 0-1.0781-0.17188-1.4531-0.51562-0.375-0.35156-0.5625-0.8125-0.5625-1.375 0-0.67578 0.22656-1.1719 0.6875-1.4844 0.46875-0.32031 1.2031-0.48438 2.2031-0.48438h1.0938v-0.14062c0-0.28906-0.11719-0.50391-0.34375-0.64062-0.23047-0.13281-0.58984-0.20312-1.0781-0.20312-0.39844 0-0.76562 0.042969-1.1094 0.125-0.34375 0.074219-0.66406 0.1875-0.95312 0.34375v-1.4062c0.39453-0.09375 0.78906-0.16406 1.1875-0.21875 0.40625-0.050781 0.80469-0.078125 1.2031-0.078125 1.0391 0 1.7891 0.21094 2.25 0.625 0.46875 0.40625 0.70312 1.0742 0.70312 2z"/>
  </symbol>
  <symbol id="b" overflow="visible">
   <path d="m2.9062-7.4219v1.6406h1.9062v1.3281h-1.9062v2.4531c0 0.26172 0.050781 0.4375 0.15625 0.53125 0.10156 0.09375 0.31641 0.14062 0.64062 0.14062h0.9375v1.3281h-1.5781c-0.73047 0-1.2461-0.14844-1.5469-0.45312-0.30469-0.30078-0.45312-0.81641-0.45312-1.5469v-2.4531h-0.92188v-1.3281h0.92188v-1.6406z"/>
  </symbol>
  <symbol id="e" overflow="visible">
   <path d="m4.8125-4.9375v-3.0938h1.8594v8.0312h-1.8594v-0.82812c-0.25 0.33594-0.53125 0.58594-0.84375 0.75-0.30469 0.15625-0.65625 0.23438-1.0625 0.23438-0.71094 0-1.293-0.28125-1.75-0.84375-0.46094-0.57031-0.6875-1.3047-0.6875-2.2031 0-0.88281 0.22656-1.6094 0.6875-2.1719 0.45703-0.57031 1.0391-0.85938 1.75-0.85938 0.40625 0 0.75781 0.085937 1.0625 0.25 0.3125 0.15625 0.59375 0.40234 0.84375 0.73438zm-1.2188 3.75c0.39453 0 0.69531-0.14453 0.90625-0.4375 0.20703-0.28906 0.3125-0.71094 0.3125-1.2656 0-0.53906-0.10547-0.95703-0.3125-1.25-0.21094-0.28906-0.51172-0.4375-0.90625-0.4375-0.38672 0-0.68359 0.14844-0.89062 0.4375-0.21094 0.29297-0.3125 0.71094-0.3125 1.25 0 0.55469 0.10156 0.97656 0.3125 1.2656 0.20703 0.29297 0.50391 0.4375 0.89062 0.4375z"/>
  </symbol>
  <symbol id="l" overflow="visible">
   <path d="m3.9688-1.1875c0.38281 0 0.67969-0.14453 0.89062-0.4375 0.20703-0.28906 0.3125-0.71094 0.3125-1.2656 0-0.53906-0.10547-0.95703-0.3125-1.25-0.21094-0.28906-0.50781-0.4375-0.89062-0.4375-0.39844 0-0.70312 0.14844-0.92188 0.4375-0.21094 0.29297-0.3125 0.71094-0.3125 1.25 0 0.55469 0.10156 0.97656 0.3125 1.2656 0.21875 0.29297 0.52344 0.4375 0.92188 0.4375zm-1.2344-3.75c0.25-0.33203 0.53125-0.57812 0.84375-0.73438 0.3125-0.16406 0.66406-0.25 1.0625-0.25 0.71875 0 1.3047 0.28906 1.7656 0.85938 0.45703 0.5625 0.6875 1.2891 0.6875 2.1719 0 0.89844-0.23047 1.6328-0.6875 2.2031-0.46094 0.5625-1.0469 0.84375-1.7656 0.84375-0.39844 0-0.75-0.078125-1.0625-0.23438-0.3125-0.16406-0.59375-0.41406-0.84375-0.75v0.82812h-1.8438v-8.0312h1.8438z"/>
  </symbol>
  <symbol id="k" overflow="visible">
   <path d="m0.125-5.7812h1.8438l1.5625 3.9219 1.3125-3.9219h1.8438l-2.4219 6.3281c-0.24219 0.64453-0.52734 1.0938-0.85938 1.3438-0.32422 0.25781-0.75 0.39062-1.2812 0.39062h-1.0625v-1.2188h0.57812c0.3125 0 0.53516-0.054688 0.67188-0.15625 0.14453-0.09375 0.25781-0.27344 0.34375-0.53125l0.046875-0.15625z"/>
  </symbol>
  <symbol id="j" overflow="visible">
   <path d="m0.96875-7.7031h5.3594v1.5h-3.375v1.4375h3.1719v1.5h-3.1719v3.2656h-1.9844z"/>
  </symbol>
  <symbol id="g" overflow="visible">
   <path d="m6.6875-3.5156v3.5156h-1.8438v-2.6875c0-0.5-0.015625-0.84375-0.046875-1.0312-0.023437-0.1875-0.058594-0.32812-0.10938-0.42188-0.074219-0.125-0.17188-0.21875-0.29688-0.28125s-0.26562-0.09375-0.42188-0.09375c-0.38672 0-0.6875 0.15234-0.90625 0.45312-0.21875 0.29297-0.32812 0.69922-0.32812 1.2188v2.8438h-1.8438v-5.7812h1.8438v0.84375c0.28125-0.33203 0.57812-0.57812 0.89062-0.73438 0.3125-0.16406 0.65625-0.25 1.0312-0.25 0.66406 0 1.1719 0.21094 1.5156 0.625 0.34375 0.40625 0.51562 1 0.51562 1.7812z"/>
  </symbol>
  <symbol id="i" overflow="visible">
   <path d="m0.89062-5.7812h1.8438v5.7812h-1.8438zm0-2.25h1.8438v1.5156h-1.8438z"/>
  </symbol>
  <symbol id="t" overflow="visible">
   <path d="m5.6406-1.4062h-3.1094l-0.48438 1.4062h-2l2.8594-7.7031h2.3594l2.8594 7.7031h-2zm-2.6094-1.4219h2.1094l-1.0469-3.0625z"/>
  </symbol>
  <symbol id="h" overflow="visible">
   <path d="m0.96875-7.7031h3.2969c0.97656 0 1.7266 0.21875 2.25 0.65625 0.53125 0.4375 0.79688 1.0586 0.79688 1.8594 0 0.8125-0.26562 1.4375-0.79688 1.875-0.52344 0.42969-1.2734 0.64062-2.25 0.64062h-1.3125v2.6719h-1.9844zm1.9844 1.4375v2.1562h1.0938c0.38281 0 0.67969-0.09375 0.89062-0.28125 0.21875-0.1875 0.32812-0.45312 0.32812-0.79688s-0.10938-0.60938-0.32812-0.79688c-0.21094-0.1875-0.50781-0.28125-0.89062-0.28125z"/>
  </symbol>
  <symbol id="s" overflow="visible">
   <path d="m4.6875-8.0312v1.2188h-1.0156c-0.26172 0-0.44531 0.046875-0.54688 0.14062-0.10547 0.09375-0.15625 0.26172-0.15625 0.5v0.39062h1.5781v1.3281h-1.5781v4.4531h-1.8438v-4.4531h-0.92188v-1.3281h0.92188v-0.39062c0-0.63281 0.17188-1.1016 0.51562-1.4062 0.35156-0.30078 0.89844-0.45312 1.6406-0.45312z"/>
  </symbol>
  <symbol id="f" overflow="visible">
   <path d="m3.6406-4.5938c-0.41797 0-0.73438 0.14844-0.95312 0.4375-0.21094 0.29297-0.3125 0.71484-0.3125 1.2656 0 0.5625 0.10156 0.99219 0.3125 1.2812 0.21875 0.29297 0.53516 0.4375 0.95312 0.4375 0.39453 0 0.69531-0.14453 0.90625-0.4375 0.21875-0.28906 0.32812-0.71875 0.32812-1.2812 0-0.55078-0.10938-0.97266-0.32812-1.2656-0.21094-0.28906-0.51172-0.4375-0.90625-0.4375zm0-1.3281c0.98828 0 1.7578 0.27344 2.3125 0.8125 0.5625 0.53125 0.84375 1.2734 0.84375 2.2188 0 0.96094-0.28125 1.7109-0.84375 2.25-0.55469 0.53125-1.3242 0.79688-2.3125 0.79688-1 0-1.7812-0.26562-2.3438-0.79688-0.5625-0.53906-0.84375-1.2891-0.84375-2.25 0-0.94531 0.28125-1.6875 0.84375-2.2188 0.5625-0.53906 1.3438-0.8125 2.3438-0.8125z"/>
  </symbol>
  <symbol id="r" overflow="visible">
   <path d="m6.2344-4.8125c0.23828-0.36328 0.51953-0.64062 0.84375-0.82812 0.32031-0.1875 0.67578-0.28125 1.0625-0.28125 0.65625 0 1.1562 0.21094 1.5 0.625 0.35156 0.40625 0.53125 1 0.53125 1.7812v3.5156h-1.8594v-3.0156-0.125c0.007812-0.050781 0.015625-0.125 0.015625-0.21875 0-0.40625-0.0625-0.69531-0.1875-0.875-0.11719-0.1875-0.30859-0.28125-0.57812-0.28125-0.35547 0-0.625 0.14844-0.8125 0.4375-0.1875 0.28125-0.28906 0.69531-0.29688 1.2344v2.8438h-1.8594v-3.0156c0-0.63281-0.058594-1.0391-0.17188-1.2188-0.10547-0.1875-0.29688-0.28125-0.57812-0.28125-0.35547 0-0.63281 0.14844-0.82812 0.4375-0.1875 0.28125-0.28125 0.69531-0.28125 1.2344v2.8438h-1.8594v-5.7812h1.8594v0.84375c0.22656-0.32031 0.48828-0.56641 0.78125-0.73438 0.28906-0.16406 0.61328-0.25 0.96875-0.25 0.39453 0 0.74219 0.10156 1.0469 0.29688 0.3125 0.1875 0.54688 0.46094 0.70312 0.8125z"/>
  </symbol>
  <symbol id="q" overflow="visible">
   <path d="m6.6875-3.5156v3.5156h-1.8438v-2.6875c0-0.5-0.015625-0.84375-0.046875-1.0312-0.023437-0.1875-0.058594-0.32812-0.10938-0.42188-0.074219-0.125-0.17188-0.21875-0.29688-0.28125s-0.26562-0.09375-0.42188-0.09375c-0.38672 0-0.6875 0.15234-0.90625 0.45312-0.21875 0.29297-0.32812 0.69922-0.32812 1.2188v2.8438h-1.8438v-8.0312h1.8438v3.0938c0.28125-0.33203 0.57812-0.57812 0.89062-0.73438 0.3125-0.16406 0.65625-0.25 1.0312-0.25 0.66406 0 1.1719 0.21094 1.5156 0.625 0.34375 0.40625 0.51562 1 0.51562 1.7812z"/>
  </symbol>
  <symbol id="p" overflow="visible">
   <path d="m0.96875-7.7031h2.2188l2.7969 5.2812v-5.2812h1.8906v7.7031h-2.2188l-2.7969-5.2812v5.2812h-1.8906z"/>
  </symbol>
  <symbol id="o" overflow="visible">
   <path d="m0.82812-2.25v-3.5312h1.8594v0.57812c0 0.3125-0.007812 0.71094-0.015625 1.1875v0.9375c0 0.46875 0.007813 0.80859 0.03125 1.0156 0.03125 0.19922 0.070313 0.34375 0.125 0.4375 0.070313 0.125 0.17188 0.21875 0.29688 0.28125s0.26562 0.09375 0.42188 0.09375c0.38281 0 0.6875-0.14453 0.90625-0.4375 0.21875-0.30078 0.32812-0.71094 0.32812-1.2344v-2.8594h1.8438v5.7812h-1.8438v-0.82812c-0.27344 0.33594-0.5625 0.58594-0.875 0.75-0.3125 0.15625-0.65625 0.23438-1.0312 0.23438-0.66797 0-1.1797-0.20312-1.5312-0.60938-0.34375-0.41406-0.51562-1.0156-0.51562-1.7969z"/>
  </symbol>
  <symbol id="n" overflow="visible">
   <path d="m0.89062-5.7812h1.8438v5.6719c0 0.78125-0.1875 1.375-0.5625 1.7812-0.36719 0.40625-0.90234 0.60938-1.6094 0.60938h-0.90625v-1.2188h0.3125c0.35156 0 0.59375-0.078125 0.71875-0.23438 0.13281-0.15625 0.20312-0.46875 0.20312-0.9375zm0-2.25h1.8438v1.5156h-1.8438z"/>
  </symbol>
  <symbol id="m" overflow="visible">
   <path d="m5.5469-5.5938v1.5c-0.25-0.16406-0.5-0.28906-0.75-0.375-0.25-0.082031-0.51172-0.125-0.78125-0.125-0.52344 0-0.92969 0.15234-1.2188 0.45312-0.28125 0.30469-0.42188 0.71875-0.42188 1.25 0 0.54297 0.14062 0.96484 0.42188 1.2656 0.28906 0.30469 0.69531 0.45312 1.2188 0.45312 0.28906 0 0.5625-0.039063 0.8125-0.125 0.25781-0.082031 0.5-0.21094 0.71875-0.39062v1.5156c-0.28125 0.10547-0.57422 0.17969-0.875 0.23438-0.29297 0.0625-0.58984 0.09375-0.89062 0.09375-1.043 0-1.8594-0.26562-2.4531-0.79688-0.58594-0.53906-0.875-1.2891-0.875-2.25 0-0.94531 0.28906-1.6875 0.875-2.2188 0.59375-0.53906 1.4102-0.8125 2.4531-0.8125 0.30078 0 0.59766 0.03125 0.89062 0.09375 0.28906 0.054687 0.58203 0.13281 0.875 0.23438z"/>
  </symbol>
 </defs>
 <g>
  <path d="m579.28 530.41c0 38.039-54.945 38.039-54.945 0 0-95.094-78.188-173.28-173.28-173.28-97.207 0-173.28 78.188-173.28 173.28 0 38.039-57.055 38.039-57.055 0 0-86.641 48.605-166.95 126.79-204.98-46.492-33.812-76.074-88.754-76.074-145.81 0-99.32 80.301-179.62 179.62-179.62 97.207 0 177.51 80.301 177.51 179.62 0 57.055-27.473 112-76.074 145.81 78.188 38.039 126.79 118.34 126.79 204.98zm-228.23-473.36c-67.621 0-122.57 54.945-122.57 122.57s54.945 122.57 122.57 122.57c67.621 0 122.57-54.945 122.57-122.57s-54.945-122.57-122.57-122.57z"/>
   </g>
</svg>
